# xmcd
#
# Track frame offsets: 
#        150
#        9476
#        21784
#        32214
#        55356
#        70210
#        81830
#        99433
#        111758
#        123118
#        138607
#        151593
#        169374
#
# Disc length: 2563 seconds
#
# Revision: 0
# Processed by: cddbd v1.5.2PL0 Copyright (c) Steve Scherf et al.
# Submitted via: ExactAudioCopyFreeDBPlugin 1.0
#
DISCID=a40a010d
DTITLE=Razor - Armed And Dangerous
DYEAR=1984
DGENRE=Thrash Metal
TTITLE0=The End
TTITLE1=Killer Instinct
TTITLE2=Hot Metal
TTITLE3=Armed And Dangerous
TTITLE4=Take This Torch
TTITLE5=Ball And Chain
TTITLE6=Fast And Loud
TTITLE7=Ball And Chain (Demo)
TTITLE8=Hot Metal (Demo)
TTITLE9=Take This Torch (Demo)
TTITLE10=Killer Instinct (Demo)
TTITLE11=Fast And Loud (Demo)
TTITLE12=Armed And Dangerous (Demo)
EXTD=
EXTT0=
EXTT1=
EXTT2=
EXTT3=
EXTT4=
EXTT5=
EXTT6=
EXTT7=
EXTT8=
EXTT9=
EXTT10=
EXTT11=
EXTT12=
PLAYORDER=
